<?xml version="1.0" encoding="UTF-8"?> <svg xmlns="http://www.w3.org/2000/svg" width="199.284" height="20.612" viewBox="0 0 199.284 24.612"><g transform="translate(-314 -284.28)"><path d="M516.926,309.264a9.278,9.278,0,0,0,9.082-6.452H521.73a5.315,5.315,0,0,1-4.8,2.945,5.151,5.151,0,0,1-5.225-4.594h14.376l.351-.35v-.806c0-5.54-3.822-9.256-9.5-9.256s-9.5,3.716-9.5,9.256,3.823,9.257,9.5,9.257Zm-4.944-11.606a5.293,5.293,0,0,1,9.887,0Z" transform="translate(-13.144 -0.44)" fill="#2b64f5" fill-rule="evenodd"></path><path d="M494.557,309.264a8.937,8.937,0,0,0,9.187-7.608h-4.032a5.1,5.1,0,0,1-5.154,3.892c-3.156,0-5.295-2.21-5.295-5.541s2.139-5.54,5.295-5.54a5.083,5.083,0,0,1,5.12,3.717h4.032a8.921,8.921,0,0,0-9.152-7.433c-5.681,0-9.5,3.716-9.5,9.256s3.82,9.257,9.5,9.257Z" transform="translate(-11.624 -0.44)" fill="#2b64f5" fill-rule="evenodd"></path><path d="M464.339,308.774h4.207V298.359c0-2.314,1.718-3.892,4.278-3.892s4.277,1.578,4.277,3.892v10.415h4.208v-10.9c0-4.278-3.226-7.118-8-7.118a7.271,7.271,0,0,0-4.768,1.788v-1.3h-4.207v17.533Z" transform="translate(-10.216 -0.44)" fill="#2b64f5" fill-rule="evenodd"></path><path d="M449.429,309.264a8.154,8.154,0,0,0,5.68-2.384v1.893h4.208V291.24h-4.208v1.893a8.157,8.157,0,0,0-5.68-2.384c-5.47,0-9.117,3.716-9.117,9.256s3.647,9.259,9.117,9.259Zm.421-3.716c-3.191,0-5.33-2.21-5.33-5.541s2.139-5.54,5.33-5.54c3.156,0,5.26,2.209,5.26,5.54s-2.1,5.541-5.26,5.541Z" transform="translate(-8.583 -0.44)" fill="#2b64f5" fill-rule="evenodd"></path><path d="M419.675,308.774h4.207V298.359c0-2.314,1.718-3.892,4.278-3.892s4.277,1.578,4.277,3.892v10.415h4.208v-10.9c0-4.278-3.227-7.118-8-7.118a7.271,7.271,0,0,0-4.768,1.788v-1.3h-4.207v17.533Z" transform="translate(-7.181 -0.44)" fill="#2b64f5" fill-rule="evenodd"></path><path d="M411.432,308.81h4.207V291.277h-4.207Z" transform="translate(-6.621 -0.475)" fill="#2b64f5" fill-rule="evenodd"></path><path d="M411.432,288.487h4.207V284.28h-4.207Z" transform="translate(-6.621)" fill="#2b64f5" fill-rule="evenodd"></path><path d="M394.227,288.487h12.307V284.28H389.244v4.207Z" transform="translate(-5.113)" fill="#2b64f5" fill-rule="evenodd"></path><path d="M393.527,298.81h6.264V294.6H389.244v4.208Z" transform="translate(-5.113 -0.701)" fill="#2b64f5" fill-rule="evenodd"></path><path d="M391.5,304.4a2.872,2.872,0,1,1-2.872,2.872A2.872,2.872,0,0,1,391.5,304.4Z" transform="translate(-5.071 -1.367)" fill="#2b64f5" fill-rule="evenodd"></path><path d="M322.2,309.325c4.916,0,8.2-2.334,8.2-5.836,0-3.112-2.023-4.565-7.781-5.8-2.482-.532-3.325-1.025-3.325-1.768,0-1.025,1.167-1.733,2.9-1.733a3.783,3.783,0,0,1,3.5,2.016l3.89-.955a7.688,7.688,0,0,0-7.391-4.6c-4.279,0-7.144,2.193-7.144,5.481,0,2.794,1.722,4.19,6.755,5.269,3.207.688,4.35,1.167,4.35,2.087,0,1.379-1.592,2.3-3.961,2.3s-4.067-1.2-4.208-2.97H314c.142,3.891,3.431,6.508,8.2,6.508Zm10.9-.495h4.244V296.912c0-1.486,1.309-2.511,3.218-2.511s3.218,1.026,3.218,2.511V308.83h4.244V296.912c0-1.486,1.309-2.511,3.218-2.511s3.218,1.026,3.218,2.511V308.83h4.244V296.487c0-3.5-2.83-5.836-7.038-5.836a7.8,7.8,0,0,0-5.305,2.122,6.9,6.9,0,0,0-4.7-2.122,5.822,5.822,0,0,0-4.314,2.087v-1.592h-4.244V308.83Zm38.066.495a9.359,9.359,0,0,0,9.159-6.508H376.02a5.361,5.361,0,0,1-4.846,2.97,5.194,5.194,0,0,1-5.269-4.633h14.5l.354-.353v-.814c0-5.588-3.855-9.336-9.584-9.336s-9.584,3.749-9.584,9.336,3.856,9.337,9.584,9.337Zm-4.986-11.706a5.339,5.339,0,0,1,9.973,0Z" transform="translate(0 -0.433)" fill="#2b64f5" fill-rule="evenodd"></path></g></svg>
